#!OML:ASF F:\VICON\USERDATA\INSTALL\rory3\rory3.ASF
:FULLY-SPECIFIED
:DEGREES
1866
root -0.50669 18.2851 3.4086 -4.5454 -5.32692 0.468316
lowerback 2.15657 0.342293 -0.763271
upperback -1.5668 0.429293 -0.0419941
thorax -2.82229 0.228507 0.365052
lowerneck -11.2886 0.183793 -6.74068
upperneck 23.7597 -0.389241 8.46745
head 9.32371 0.126739 4.04403
rclavicle 1.74713e-015 1.09332e-014
rhumerus 51.0847 -14.9519 -31.8235
rradius 44.3167
rwrist -8.38152
rhand -30.4086 4.71894
rfingers 7.12502
rthumb -3.71203 -25.2285
lclavicle 1.74713e-015 1.09332e-014
lhumerus 45.0307 8.07991 18.463
lradius 39.3974
lwrist 20.7808
lhand -25.041 24.2915
lfingers 7.12502
lthumb 1.47192 54.2662
rfemur 0.499213 27.7702 9.84532
rtibia 19.2886
rfoot -17.71 -12.5074
rtoes -8.16772
lfemur 5.9044 -11.9384 -9.50004
ltibia 16.4671
lfoot -19.3261 27.144
ltoes -6.98635
1867
root -0.51053 18.2821 3.42197 -4.5554 -5.16587 0.469884
lowerback 2.16879 0.278433 -0.780526
upperback -1.53893 0.343891 -0.0284615
thorax -2.79963 0.186254 0.392563
lowerneck -11.4591 0.178323 -6.63306
upperneck 23.8999 -0.346773 8.18087
head 9.40315 0.128124 3.93577
rclavicle 1.01092e-014 2.10432e-016
rhumerus 50.2468 -15.7903 -30.4053
rradius 45.0747
rwrist -9.07044
rhand -29.9159 4.4487
rfingers 7.12502
rthumb -3.23623 -25.5065
lclavicle 1.01092e-014 2.10432e-016
lhumerus 43.9532 8.52745 16.8521
lradius 39.0319
lwrist 20.226
lhand -24.5769 24.2266
lfingers 7.12502
lthumb 1.9202 54.1977
rfemur 0.575999 27.7433 9.91634
rtibia 19.386
rfoot -17.8195 -12.6385
rtoes -8.36709
lfemur 5.88954 -11.9744 -9.47723
ltibia 16.4987
lfoot -19.352 27.0287
ltoes -6.84208
1868
root -0.515824 18.2788 3.43072 -4.57779 -5.07433 0.491226
lowerback 2.2301 0.244867 -0.855499
upperback -1.47199 0.296564 -0.0182
thorax -2.76513 0.163883 0.447206
lowerneck -11.725 0.182822 -6.41065
upperneck 24.0101 -0.290569 7.82309
head 9.48996 0.13988 3.78414
rclavicle -2.62081e-014 2.20868e-014
rhumerus 49.412 -16.7155 -29.0854
rradius 45.7424
rwrist -9.52867
rhand -29.6139 4.114
rfingers 7.12502
rthumb -2.94459 -25.8454
lclavicle -2.62081e-014 2.20868e-014
lhumerus 43.0032 9.19068 15.7357
lradius 38.5259
lwrist 19.0921
lhand -24.3162 24.4559
lfingers 7.12502
lthumb 2.17197 54.4246
rfemur 0.608511 27.7211 9.95879
rtibia 19.5051
rfoot -17.9078 -12.7393
rtoes -8.60207
lfemur 5.89011 -11.9422 -9.46142
ltibia 16.5064
lfoot -19.2701 26.9415
ltoes -6.90596
1869
root -0.522243 18.2759 3.44194 -4.62598 -4.92599 0.585507
lowerback 2.2867 0.168176 -1.06115
upperback -1.39809 0.187516 0.00405671
thorax -2.72026 0.113132 0.590328
lowerneck -11.9495 0.23827 -6.38584
upperneck 24.0948 -0.176932 7.6966
head 9.55403 0.184743 3.75346
rclavicle 1.6819e-015 2.28478e-014
rhumerus 48.6471 -17.6486 -28.0192
rradius 46.3457
rwrist -9.51552
rhand -29.8373 4.15855
rfingers 7.12502
rthumb -3.16037 -25.7978
lclavicle 1.6819e-015 2.28478e-014
lhumerus 41.9085 9.78007 14.6448
lradius 38.0086
lwrist 18.061
lhand -24.3862 24.6091
lfingers 7.12502
lthumb 2.10441 54.5784
rfemur 0.694793 27.6706 9.94653
rtibia 19.6296
rfoot -18.0005 -12.8345
rtoes -8.71702
lfemur 5.90591 -11.9442 -9.53509
ltibia 16.5069
lfoot -19.0801 26.8556
ltoes -7.21897
